<?xml version="1.0" encoding="UTF-8"?>
<!-- Generator: Adobe Illustrator 22.0.0, SVG Export Plug-In . SVG Version: 6.00 Build 0)  -->
<svg version="1.1" xmlns="http://www.w3.org/2000/svg" xmlns:xlink="http://www.w3.org/1999/xlink" x="0px" y="0px" viewBox="0 0 48 48" style="enable-background:new 0 0 48 48;" xml:space="preserve">
<g id="Layer_2">
</g>
<g id="Layer_1">
	<g>
		<path style="fill:none;stroke:#303030;stroke-width:1.6;stroke-linecap:round;stroke-linejoin:round;stroke-miterlimit:10;" d="    M13.03902,24.014c-0.21911-5.64019,4.83647-10.85214,10.61351-10.92003c2.94463-0.24545,5.80911,0.87214,8.03762,2.69476    c-0.91385,0.98181-1.84374,1.95318-2.83775,2.86187c-1.96131-1.16459-4.32343-2.0524-6.61608-1.26382    c-3.69816,1.02881-5.93736,5.29551-4.56926,8.83107c1.13296,3.69223,5.72894,5.71852,9.33091,4.16747    c1.86511-0.6528,3.09427-2.33441,3.63403-4.14136c-2.13767-0.04178-4.27533-0.01567-6.413-0.07311    c-0.00534-1.24293-0.01069-2.48064-0.00534-3.72357c3.56456-0.00522,7.13446-0.01567,10.70436,0.01567    c0.21911,3.04466-0.24049,6.30343-2.26593,8.74751c-2.77362,3.48856-7.89868,4.51215-12.06712,3.14388    C16.16002,32.93385,12.94283,28.57837,13.03902,24.014z"/>
	</g>
</g>
</svg>